PathFileType	4	(X/Y/Z)																																																																																																																																																																																															
DataRate	CameraRate	NumFrames	NumMarkers	Units	OrigDataRate	OrigDataStartFrame	OrigNumFrames																																																																																																																																																																																										
100	100	4	64	     mm	100	100	397																																																																																																																																																																																										
Frame#	Time	LASI			RASI			LPSI			RPSI			RTH2			RTH3			RLFC			RMFC			LTH1			LTH2			LTH3			LLFC			LMFC			RTB1			RTB2			RTB3			RLMAL			RMMAL			LTB1			LTB2			LTB3			LLMAL			LMMAL			RCAL			RTOE			RMT5			LCAL			LTOE			LMT5			LACR			RACR			CLAV			C7			LASH			LPSH			RASH			RPSH			RUA1			RUA2			RUA3			RLEL			RMEL			LUA1			LUA2			LUA3			LLEL			LMEL			RFAsuperior			RFAradius			RFAulna			LFAsuperior			LFAradius			LFAulna			RTH1			RHJC			LHJC			RKJC			LKJC			RAJC			LAJC			RSJC			LSJC			REJC			LEJC		
		X1	Y1	Z1	X2	Y2	Z2	X3	Y3	Z3	X4	Y4	Z4	X5	Y5	Z5	X6	Y6	Z6	X7	Y7	Z7	X8	Y8	Z8	X9	Y9	Z9	X10	Y10	Z10	X11	Y11	Z11	X12	Y12	Z12	X13	Y13	Z13	X14	Y14	Z14	X15	Y15	Z15	X16	Y16	Z16	X17	Y17	Z17	X18	Y18	Z18	X19	Y19	Z19	X20	Y20	Z20	X21	Y21	Z21	X22	Y22	Z22	X23	Y23	Z23	X24	Y24	Z24	X25	Y25	Z25	X26	Y26	Z26	X27	Y27	Z27	X28	Y28	Z28	X29	Y29	Z29	X30	Y30	Z30	X31	Y31	Z31	X32	Y32	Z32	X33	Y33	Z33	X34	Y34	Z34	X35	Y35	Z35	X36	Y36	Z36	X37	Y37	Z37	X38	Y38	Z38	X39	Y39	Z39	X40	Y40	Z40	X41	Y41	Z41	X42	Y42	Z42	X43	Y43	Z43	X44	Y44	Z44	X45	Y45	Z45	X46	Y46	Z46	X47	Y47	Z47	X48	Y48	Z48	X49	Y49	Z49	X50	Y50	Z50	X51	Y51	Z51	X52	Y52	Z52	X53	Y53	Z53	X54	Y54	Z54	X55	Y55	Z55	X56	Y56	Z56	X57	Y57	Z57	X58	Y58	Z58	X59	Y59	Z59	X60	Y60	Z60	X61	Y61	Z61	X62	Y62	Z62	X63	Y63	Z63	X64	Y64	Z64
																																																																																																																																																																																																	
100	0.99	629.34302	1082.8551	-360.22095	375.24988	1075.28662	-360.86917	560.23816	1126.599	-523.70831	446.77286	1119.39795	-524.771	341.92291	820.22028	-504.17545	333.76971	666.32507	-476.59683	335.72385	561.79694	-472.56079	450.65515	536.74029	-459.35397	690.79736	955.95911	-420.91553	658.47131	806.01849	-505.87491	674.92841	670.23834	-467.26947	671.93378	551.53742	-455.84802	563.19916	520.19904	-471.12637	374.34283	406.37653	-437.25662	318.57846	370.19208	-526.65967	379.39063	220.51907	-471.68851	331.79306	119.39492	-528.99719	421.15585	130.09946	-504.48401	640.33148	440.86188	-425.17661	689.73181	342.12567	-515.98914	648.41522	227.96736	-455.45294	680.22058	124.73013	-507.98169	593.35284	130.93424	-490.90054	389.10989	97.33186	-597.07532	373.60168	76.07925	-352.30292	287.46939	52.67974	-412.8587	618.84277	97.60792	-579.9046	645.35046	79.15297	-343.66083	735.14166	43.67075	-403.8381	632.46228	1578.62073	-492.40158	340.62469	1566.03479	-470.65317	458.47192	1530.39551	-409.43607	495.91342	1580.41638	-535.01581	645.66205	1546.27124	-429.04221	661.6958	1515.41113	-549.69391	328.8775	1528.63049	-416.84677	320.87549	1497.09485	-553.17151	243.60481	1469.09375	-531.41321	183.76593	1478.5105	-478.90091	99.50935	1421.81921	-503.68307	39.72059	1384.14539	-512.28296	77.82294	1324.52539	-463.93793	732.92279	1491.62683	-535.37372	808.61212	1500.12073	-488.44952	886.68652	1456.18603	-513.24023	958.21497	1438.13599	-503.45676	924.96796	1356.745	-482.18475	-27.99955	1394.76355	-426.24579	-57.7504	1368.75684	-249.95897	-117.21269	1364.54468	-287.19995	1013.797	1424.5863	-435.14664	1019.70148	1374.48291	-249.83479	1088.18616	1387.74353	-266.76221	306.75668	956.86501	-414.29913	412.66146	977.09724	-436.20496	587.82997	1001.19476	-444.25056	393.1895	549.26862	-465.95738	617.56647	535.86823	-463.4872	376.47446	124.74719	-516.7406	636.78671	127.83218	-499.44112	324.87649	1512.86267	-485.00914	653.67892	1530.84119	-489.36806	58.77176	1354.33539	-488.11044	941.59146	1397.44049	-492.82075
101	1	629.33173	1082.87866	-360.24536	375.23706	1075.27795	-360.91412	560.32593	1126.43091	-524.0683	446.78033	1119.41492	-524.86176	341.95169	820.22681	-504.23358	333.76389	666.30621	-476.6192	335.73019	561.7301	-472.58658	450.64536	536.73938	-459.37442	690.79071	955.93921	-420.99619	658.45605	806.02142	-505.89548	674.94391	670.23505	-467.28702	671.94452	551.53314	-455.85797	563.20386	520.19745	-471.12802	374.33475	406.41708	-437.29865	318.61404	370.11081	-526.70074	379.37842	220.4691	-471.68811	331.81323	119.40141	-529.00635	421.15399	130.09528	-504.44369	640.33136	440.86194	-425.17664	689.729	342.1272	-515.992	648.35779	227.98222	-455.4332	680.2254	124.64355	-507.84396	593.35486	130.90836	-490.95377	388.89414	97.29306	-596.86035	373.62143	76.05399	-352.3269	287.48062	52.67036	-412.85654	618.86078	97.61509	-579.94861	645.35248	79.15173	-343.66095	735.15179	43.66753	-403.8476	632.47522	1578.64233	-492.4072	340.6062	1566.0376	-470.76831	458.44009	1530.43823	-409.35837	495.91305	1580.41614	-535.06195	645.64887	1546.28552	-429.04779	661.57245	1515.42835	-549.42126	328.80817	1528.61731	-416.77396	320.85922	1497.14502	-553.19721	243.59946	1469.10388	-531.43115	183.77034	1478.5116	-478.92023	99.5304	1421.81323	-503.69385	39.72238	1384.13513	-512.29681	77.83807	1324.50623	-463.94183	732.78601	1491.63635	-534.91028	808.59491	1500.13257	-488.48541	886.63641	1456.24011	-513.04675	958.20587	1438.13367	-503.47797	924.97382	1356.72669	-482.20511	-27.97487	1394.70935	-426.21246	-57.66758	1368.63696	-249.84788	-117.11275	1364.46838	-287.25568	1013.76404	1424.60107	-435.11874	1019.50421	1374.43713	-249.62447	1088.12085	1387.76355	-266.65109	306.77213	956.83548	-414.36531	412.6836	977.05653	-436.24731	587.85321	1001.15711	-444.24633	393.18777	549.23474	-465.9805	617.57419	535.8653	-463.493	376.48361	124.74834	-516.72502	636.79013	127.77595	-499.39887	324.83369	1512.88117	-484.98558	653.61066	1530.85693	-489.23453	58.78022	1354.32068	-488.11932	941.58984	1397.43018	-492.84154
102	1.01	629.32257	1082.85718	-360.27142	375.22412	1075.28162	-360.9693	560.31598	1126.43323	-524.09668	446.76898	1119.41773	-524.88629	341.97195	820.23193	-504.28317	333.75342	666.32245	-476.69348	335.7843	561.74738	-472.64713	450.63702	536.73242	-459.36371	690.79126	955.96954	-420.99475	658.46191	806.01282	-505.93817	674.93402	670.2381	-467.31638	671.94452	551.53308	-455.85806	563.20386	520.19745	-471.12802	374.32269	406.42416	-437.30438	318.70902	370.22589	-526.74896	379.36679	220.53233	-471.69452	331.81714	119.4044	-528.99457	421.17365	130.08272	-504.47372	640.33142	440.86194	-425.17661	689.73181	342.12567	-515.9892	648.36432	227.99554	-455.47015	680.20904	124.64791	-507.84821	593.36414	130.92751	-490.91342	388.89969	97.30352	-596.85992	373.67426	76.15643	-352.54794	287.48526	52.68201	-412.85889	618.84937	97.61284	-579.90057	645.34021	79.13947	-343.65469	735.15179	43.66752	-403.84769	632.47418	1578.61291	-492.3999	340.60458	1566.06934	-470.65903	458.41885	1530.45532	-409.33905	495.90314	1580.42017	-535.11597	645.62372	1546.27283	-429.01932	661.58368	1515.44946	-549.45001	328.80563	1528.58533	-416.90109	320.84882	1497.12695	-553.24915	243.6058	1469.1051	-531.45374	183.78674	1478.479	-478.92178	99.50913	1421.78174	-503.65985	39.8027	1384.10962	-512.34808	77.85048	1324.48987	-463.93161	732.78296	1491.63623	-534.90173	808.59497	1500.13306	-488.43744	886.64179	1456.23169	-513.0047	958.2287	1438.11377	-503.45959	924.9505	1356.76025	-482.17651	-27.94383	1394.64453	-426.20584	-57.57602	1368.6073	-249.97543	-117.08439	1364.40918	-287.1994	1013.75964	1424.59033	-435.091	1019.59619	1374.45508	-249.74764	1088.07227	1387.74817	-266.57916	306.75197	956.84291	-414.41038	412.66462	977.05897	-436.29214	587.83597	1001.14885	-444.2916	393.21066	549.2399	-466.00542	617.57419	535.86527	-463.49304	376.49539	124.74356	-516.73415	636.78659	127.78771	-499.38081	324.82723	1512.85614	-485.07512	653.6037	1530.86114	-489.23467	58.82659	1354.29974	-488.13985	941.5896	1397.43701	-492.81805
103	1.02	629.26111	1082.82312	-360.31836	375.19171	1075.28125	-361.00613	560.33954	1126.42835	-524.15277	446.81198	1119.39661	-524.95923	341.98212	820.20727	-504.34524	333.7952	666.30994	-476.75378	335.87344	561.70331	-472.70026	450.65442	536.71973	-459.38467	690.7699	955.95874	-421.00311	658.48718	806.0152	-506.00922	674.94952	670.23486	-467.33429	671.8977	551.52454	-455.82449	563.10663	520.24158	-471.33566	374.32962	406.43701	-437.28922	318.68487	370.25131	-526.73035	379.3736	220.49893	-471.68036	331.83984	119.39984	-528.9787	421.17609	130.08727	-504.457	640.3208	440.84564	-425.20761	689.73102	342.13412	-515.96826	648.3877	227.97957	-455.43811	680.21814	124.64323	-507.81488	593.37927	130.95253	-490.91226	388.90164	97.30349	-596.86157	373.63785	76.05657	-352.3562	287.54001	52.70406	-412.82922	618.86054	97.61507	-579.94818	645.35132	79.15242	-343.65125	735.16187	43.66429	-403.85718	632.4552	1578.63782	-492.39087	340.6156	1566.01306	-470.72024	458.45544	1530.44568	-409.43204	495.88821	1580.42358	-535.12848	645.68384	1546.29419	-428.86285	661.61603	1515.4375	-549.48114	328.81223	1528.59888	-416.8526	320.84406	1497.17249	-553.21991	243.59468	1469.08557	-531.45404	183.77052	1478.48267	-478.91498	99.50429	1421.77991	-503.65442	39.78279	1384.07678	-512.27637	77.85134	1324.48743	-463.93451	732.78412	1491.65356	-534.87335	808.60577	1500.12695	-488.44547	886.65857	1456.23853	-512.99219	958.2182	1438.13025	-503.43982	924.93012	1356.74683	-482.14716	-27.94829	1394.61365	-426.15588	-57.5917	1368.56653	-249.92079	-116.96971	1364.3302	-287.17899	1013.75311	1424.58569	-435.01746	1019.39728	1374.40161	-249.50359	1088.0304	1387.71081	-266.52228	306.69814	956.87727	-414.54077	412.62444	977.06635	-436.37818	587.80415	1001.11188	-444.30417	393.26393	549.21152	-466.04246	617.50217	535.88306	-463.58008	376.50797	124.74355	-516.71785	636.79871	127.79788	-499.36357	324.82814	1512.88568	-485.03625	653.64993	1530.86584	-489.172	58.81706	1354.2821	-488.10544	941.57416	1397.43854	-492.79349
